<?xml version="1.0" encoding="UTF-8" standalone="no"?>
<!-- Created with Inkscape (http://www.inkscape.org/) -->

<svg
   width="116.52998mm"
   height="116.50334mm"
   viewBox="0 0 116.52998 116.50334"
   version="1.1"
   id="svg1"
   xml:space="preserve"
   xmlns="http://www.w3.org/2000/svg"
   xmlns:svg="http://www.w3.org/2000/svg"><defs
     id="defs1"><linearGradient
       id="swatch64"><stop
         style="stop-color:#040029;stop-opacity:1;"
         offset="0"
         id="stop64" /></linearGradient><linearGradient
       id="swatch44"><stop
         style="stop-color:#000000;stop-opacity:1;"
         offset="0"
         id="stop44" /></linearGradient></defs><rect
     style="display:none;opacity:0;fill:#0000ff;fill-rule:evenodd;stroke-width:0.245665"
     id="rect118"
     width="118.97816"
     height="118.97816"
     x="-9.4821672"
     y="0.38775772" /><g
     id="layer1"
     transform="translate(-59.363916,-70.871886)"><path
       style="display:inline;fill:#000a1a;fill-opacity:1;stroke:#040029;stroke-width:0.140816;stroke-dasharray:none;stroke-opacity:1"
       d="m 98.016584,71.089007 c -2.728728,0.008 -5.243645,1.830337 -5.884951,4.25219 -0.353754,1.19358 -0.456467,2.51098 -0.277607,3.698589 0.715694,0.449574 2.229674,0.278776 2.135995,-0.762068 -0.0092,-1.668729 0.369451,-3.671852 2.157537,-4.533485 2.66247,-1.340299 6.551922,0.624891 6.494162,3.441373 0.14216,1.931064 -1.35685,3.564498 -2.694409,4.920649 -0.867982,0.515436 -0.836809,1.359086 -0.729623,2.198073 -0.0024,0.731857 0.0437,1.502135 0.561879,2.089162 -1.874897,1.872465 -4.084124,3.493356 -6.189845,5.118115 -1.049922,0.659833 -2.414302,0.251902 -3.599245,0.288376 -0.937634,0.04541 -1.994049,-0.59753 -2.8521,-0.09079 -1.516365,1.745531 -2.686182,3.762105 -4.240768,5.46152 -4.662328,3.309209 -9.536764,6.447079 -13.60029,10.387209 -1.643643,1.59296 -2.533032,3.69434 -2.780712,5.85083 -0.776707,4.41821 -0.985816,8.92841 -2.076904,13.28809 -1.031182,3.11438 -2.689691,6.02593 -3.683319,9.15609 -0.381731,1.2176 -0.97987,2.41912 -1.22459,3.64301 2.189987,2.5795 5.59274,3.92856 8.754804,5.25617 5.073666,1.93271 10.459154,3.45795 16.001983,3.50691 1.458221,-1.63175 1.96409,-3.82275 2.827668,-5.75154 0.225688,-0.5109 0.359926,0.56601 0.517834,0.74104 4.532622,12.1174 9.841951,23.97744 15.105307,35.8415 1.10829,2.36613 2.07257,4.82663 3.28058,7.12966 3.19907,1.03137 6.6847,1.20096 10.01439,0.67514 6.02434,-1.0298 10.91571,-4.93744 16.94105,-5.88904 5.79214,-1.06824 11.7731,-1.91218 17.01371,-4.56393 1.8723,-0.96296 3.78466,-1.89327 5.92315,-2.26507 6.92139,-1.61255 13.70683,-4.65807 18.28747,-9.79849 0.50755,-0.65303 1.33829,-1.20664 1.56921,-1.99006 -0.92339,-1.65864 -2.4832,-2.9582 -3.8277,-4.33773 -4.63042,-4.20225 -10.10859,-7.55798 -14.62804,-11.86966 -5.30729,-5.05277 -8.78415,-11.58617 -10.29832,-18.4394 -0.0813,-0.41216 -0.41952,-1.17574 0.29396,-0.74709 2.90209,1.03554 5.86391,2.07914 8.93421,2.56185 2.99236,-1.36652 4.98643,-3.96988 6.82588,-6.42672 3.55539,-5.10241 5.87367,-11.04935 5.81913,-17.14572 0.15955,-0.82667 -1.10277,-0.81281 -1.66854,-1.18035 -5.28931,-2.13228 -11.0224,-3.34784 -16.17305,-5.719974 -4.05365,-2.129051 -7.57208,-4.984503 -11.51571,-7.271385 -2.62057,-0.966931 -5.45929,-1.348538 -8.20244,-1.939407 -3.48347,-0.721041 -7.03439,-1.137109 -10.51938,-1.83863 -2.04766,-0.697766 -3.94566,-1.805743 -6.05248,-2.340349 -1.33912,0.734108 -2.5509,1.682027 -3.99121,2.278685 -2.86669,-0.61882 -5.76592,-1.157179 -8.56808,-1.978497 -0.50152,-0.752526 -0.74091,-1.888999 -0.0268,-2.620067 1.85598,-2.068453 3.43437,-4.734532 2.82968,-7.492833 -0.5939,-2.918988 -3.87057,-4.812986 -6.983537,-4.791948 z m 18.991956,17.449079 c 0.64884,0.291668 1.39051,0.555585 1.95868,0.919187 -3.75612,3.078142 -8.31314,5.344622 -13.13199,6.68411 -3.14606,0.853117 -6.403461,1.45929 -9.705491,1.418439 -3.220869,0.113062 -6.444196,0.07404 -9.604469,-0.565742 -0.311072,-0.06287 -0.95775,-0.0663 -0.457611,-0.430225 0.710929,-0.933519 1.324907,-1.924469 1.968445,-2.896898 5.378487,0.269898 10.904501,0.529166 16.135076,-0.882418 3.93983,-0.98944 7.47754,-2.944072 10.77206,-5.102402 0.68846,0.285315 1.37685,0.570634 2.0653,0.855949 z m -14.93464,0.03779 c 1.71211,0.06464 3.49693,0.231568 5.06596,0.839941 -1.90375,0.989013 -4.00853,1.68618 -6.1502,2.066139 -1.369207,0.151624 -2.81731,0.309995 -4.163918,0.220156 1.062508,-1.243473 2.556166,-2.144855 3.916218,-3.126236 0.44397,0 0.88794,0 1.33194,0 z m 19.3974,1.94596 c 5.45651,0.642938 10.96457,1.331766 16.18759,2.957251 -0.59234,2.760689 -1.57821,5.464072 -1.84575,8.285793 -0.57238,4.62689 0.18919,9.35048 2.11646,13.65759 1.55706,3.67763 3.68085,7.12314 5.75677,10.56827 0.63084,1.70228 0.75627,3.53518 1.46889,5.22334 1.73509,4.9235 4.73762,9.35739 7.88887,13.61434 -0.13341,0.13295 -0.82472,-0.19893 -1.16097,-0.28078 -4.45606,-1.59809 -7.96094,-4.82677 -11.2231,-7.95264 -2.20045,-2.08795 -4.05558,-4.4574 -6.15617,-6.61632 -0.62832,0.0739 0.0332,0.77459 0.1483,1.07852 2.55956,4.41305 5.89059,8.5392 10.34354,11.50694 5.64823,3.86505 11.99885,6.77598 17.58833,10.71486 3.6433,2.51587 7.04567,5.32031 10.22962,8.3 -3.38299,0.39092 -6.84459,1.01723 -9.82039,2.64271 -4.43037,2.30695 -7.81144,6.17853 -12.79625,7.60073 -4.10358,1.18807 -8.49912,0.92125 -12.69701,0.40041 -1.59423,-0.26316 -2.74067,-1.45605 -4.11179,-2.16704 -5.50414,-3.39719 -11.72449,-5.6097 -17.7779,-8.01813 -6.22294,-2.45688 -10.99858,-7.15637 -14.84011,-12.15505 -0.37689,-0.34255 -0.58853,-0.95392 -1.107046,-1.11558 -0.418348,0.36566 0.306019,0.92446 0.411626,1.32433 3.0147,5.27354 7.49273,9.90904 13.17471,12.88437 5.8485,3.20173 12.70275,4.6309 18.28647,8.26348 0.50891,0.34674 0.98632,0.7295 1.45664,1.11836 -5.13622,0.4941 -9.22477,3.66486 -13.2705,6.28739 -3.71179,2.4665 -7.79345,4.70792 -12.39004,5.38392 -2.48877,-6.78799 -5.99576,-13.22654 -8.717791,-19.92667 -0.161505,-0.51479 0.557627,0.11195 0.724735,0.20151 3.844916,2.98863 8.022766,5.62061 11.657266,8.83371 0.34619,0.32145 0.62834,-0.2081 0.2819,-0.43661 -2.51131,-3.7186 -6.90447,-5.86004 -10.00319,-9.09664 -5.193218,-5.18254 -8.162688,-11.83315 -10.794225,-18.34244 -2.475729,-6.05502 -3.721511,-12.47748 -6.546252,-18.42699 -2.919726,-6.51353 -7.50073,-12.51814 -13.745231,-16.71848 -0.226941,-0.33659 0.607695,-0.70889 0.79681,-1.04188 4.051439,-4.04036 8.976747,-7.22265 13.697306,-10.570627 7.359992,1.632407 15.288963,1.780277 22.477642,-0.606779 5.00342,-1.590239 9.54933,-4.234 13.47862,-7.458085 0.27721,0.02763 0.55442,0.05528 0.83162,0.08292 z m 19.40376,4.172951 c 5.58382,4.133905 11.72115,7.853103 18.68987,9.696063 0.77077,0.24661 1.49903,0.53016 2.20414,0.89937 -3.14572,3.17157 -6.74521,6.33124 -8.06978,10.56845 -0.74286,3.30978 -0.80956,6.84211 -2.61703,9.86807 -0.2173,0.66249 -1.01714,-0.0369 -1.50721,-0.0897 -1.40214,-0.50947 -2.82258,-0.97747 -4.26593,-1.3805 -3.60613,-5.39698 -7.03613,-11.22148 -7.49135,-17.66031 -0.26471,-3.45046 0.0454,-6.917715 1.03942,-10.264041 0.22625,-0.854425 0.48603,-1.701629 0.80147,-2.532419 0.40547,0.298346 0.81094,0.596695 1.2164,0.895045 z m 22.48573,10.994043 c 0.60288,0.14198 1.49137,-0.007 1.89433,0.48911 0.44658,0.94481 -0.79393,1.50455 -1.28562,2.15825 -2.81487,2.79165 -5.8092,5.79982 -6.57125,9.67074 -0.71143,3.13798 -1.26924,6.33232 -2.66329,9.29422 -0.97585,-0.33169 -1.91276,-0.74292 -2.87364,-1.12331 1.49284,-2.85397 2.34347,-5.94841 2.64291,-9.09364 0.23383,-2.22112 1.35282,-4.25613 2.86288,-5.97364 1.58337,-1.92756 3.37122,-3.70343 5.13102,-5.49547 0.28758,0.0246 0.57512,0.0491 0.86266,0.0737 z m 2.88658,4.06799 c -0.45851,3.9891 -2.31648,7.76341 -4.51013,11.2012 -1.02346,1.52603 -2.18321,3.00619 -3.67286,4.19435 0.70823,-2.85377 0.77311,-5.90376 2.11129,-8.5897 1.56715,-2.77846 3.85955,-5.13909 6.11943,-7.46527 -0.016,0.21981 -0.0317,0.43961 -0.0477,0.65942 z m -96.939996,2.51037 c 1.94803,0.55184 3.267005,2.15805 4.593199,3.47478 5.959155,6.64491 9.529187,14.81774 12.0007,23.04259 0.277546,0.90503 -0.53782,1.70867 -0.733644,2.5668 -0.09455,0.41224 -0.38868,0.56927 -0.771576,0.27132 -3.29086,-1.2958 -5.784139,-3.77128 -8.816933,-5.47236 -3.530943,-1.8172 -7.715816,-1.79647 -11.646906,-1.98218 1.921885,-5.04811 3.739159,-10.17842 4.34504,-15.52074 0.292531,-2.13705 0.491902,-4.28333 0.710287,-6.42745 0.106601,0.0157 0.213224,0.0315 0.319833,0.0472 z m -4.914515,22.80623 c 4.326637,0.10358 8.96668,0.60575 12.535154,3.02838 2.459597,1.63449 4.831487,3.42119 7.599077,4.61587 0.09388,0.44541 -0.403722,1.04645 -0.581953,1.53574 -0.240921,0.41679 -0.4974,1.2223 -1.09652,0.64016 -4.493977,-2.21367 -8.312682,-5.82439 -13.49009,-6.70756 -2.189134,-0.19116 -4.420392,-0.29784 -6.603361,0.002 0.06206,-1.04777 0.275122,-2.08566 0.65117,-3.06876 0.333448,-0.0174 0.661072,-0.0481 0.986523,-0.0462 z m 1.48223,4.89718 c 3.802352,-0.20984 7.357979,1.44441 10.354657,3.4399 0.706605,0.52654 1.659778,0.95546 2.200898,1.55699 -0.01064,0.61301 -0.221529,0.95403 -0.858935,0.49097 -3.901568,-1.46749 -8.231365,-1.8704 -11.923639,-3.76836 -0.728465,-0.43517 -1.563312,-0.9812 -1.995176,-1.62975 0.737333,-0.1104 1.478413,-0.0778 2.222195,-0.0897 z m 105.756951,24.01145 c -3.28276,3.16817 -7.20945,5.95304 -11.85124,7.14596 -1.46503,0.40455 -3.13273,0.76591 -4.52141,0.99081 4.20388,-3.65649 9.13635,-6.95223 14.97721,-7.91243 0.46127,-0.0856 0.93501,-0.1777 1.39544,-0.22434 z m -31.92396,10.33515 c 3.00882,0.0284 6.03252,0.0505 9.02096,0.34714 -3.72444,1.85633 -7.9178,2.65376 -12.05647,3.35148 -4.70111,0.622 -9.17278,2.23297 -13.30755,4.3359 -2.50787,1.34267 -5.30051,2.14263 -8.18338,2.40005 -0.56211,-0.0298 -1.26362,0.25778 -1.76172,0.10973 1.92884,-0.74868 3.90577,-1.63804 5.58243,-2.84968 3.14131,-2.18144 5.72049,-5.20349 9.59968,-6.31408 3.56663,-1.15054 7.35665,-1.33375 11.10605,-1.38054 z"
       id="path98" /><path
       style="display:inline;fill:#000a1a;fill-opacity:1;stroke:#040029;stroke-width:0.099572;stroke-dasharray:none;stroke-opacity:1"
       d="m 139.3407,152.87721 c -0.41538,0.28761 0.30293,0.575 0.47467,0.79467 2.06582,1.68931 4.3915,3.29623 7.17593,3.7881 3.60839,0.8284 7.33391,1.45599 10.63741,3.0845 0.3997,0.18647 0.43404,-0.35278 0.13472,-0.4941 -1.24356,-1.39416 -2.92354,-2.49331 -4.87012,-2.87647 -4.1073,-1.13191 -8.34532,-1.97964 -12.21,-3.71286 -0.44869,-0.17355 -0.85484,-0.51872 -1.34261,-0.58384 z"
       id="path99" /><path
       style="fill:#000a1a;fill-opacity:1;stroke:#040029;stroke-width:0.0704078;stroke-dasharray:none;stroke-opacity:1"
       d="m 123.17596,119.25531 c -1.49327,0.37929 -2.98148,0.78321 -4.45432,1.22382 -1.02279,1.38988 -1.92753,2.86709 -2.9048,4.29024 0.0654,0.60898 0.41862,1.18922 0.59848,1.78645 0.20045,0.40904 0.24729,0.90772 0.5521,1.2583 0.82101,-0.10666 1.60993,-0.43946 2.41739,-0.63268 0.40983,-0.25875 0.43716,0.18295 0.5545,0.45332 2.01401,5.07696 3.69227,10.32372 6.64791,15.03553 0.41258,0.6837 0.92488,1.31335 1.32682,2.002 -0.8945,0.47692 -1.86038,0.7935 -2.81804,1.15377 -0.26398,0.24789 0.15313,0.55736 0.22202,0.81696 0.65976,1.12311 1.20651,2.30351 1.83047,3.44402 0.39298,0.11222 0.75496,-0.27088 1.12969,-0.37628 3.23651,-1.49163 6.47331,-3.33061 8.51457,-6.14239 0.067,-0.35302 -0.3218,-0.64358 -0.45116,-0.9615 -0.61514,-0.99718 -1.18622,-2.01879 -1.72548,-3.05086 -0.32434,-0.18435 -0.5739,0.2563 -0.81483,0.39476 -0.48988,0.42519 -0.96017,0.87914 -1.52416,1.22439 -2.39938,-3.42801 -4.07633,-7.22468 -5.35085,-11.1001 -1.21873,-3.55857 -2.21868,-7.18571 -3.54168,-10.71546 -0.0358,-0.0589 -0.13343,-0.11113 -0.20863,-0.10429 z"
       id="path100" /><path
       style="fill:#000a1a;fill-opacity:1;stroke:#040029;stroke-width:0.0704078;stroke-dasharray:none;stroke-opacity:1"
       d="m 107.92178,123.72369 c -1.47759,0.39014 -2.95196,0.82221 -4.38218,1.33695 -0.96122,1.26689 -1.87024,2.57041 -2.81015,3.85202 0.0388,0.64851 0.35051,1.28518 0.49501,1.92899 0.18921,0.53013 0.26197,1.11986 0.5214,1.61683 0.30746,0.14597 0.67446,-0.15633 0.99917,-0.20202 0.70804,-0.21171 1.45316,-0.52123 2.14345,-0.67126 0.76123,2.14692 1.46525,4.31378 2.34128,6.4262 1.32819,3.30596 2.87027,6.54479 4.72647,9.63308 -1.04001,0.2464 -2.11371,0.44308 -3.19081,0.50902 -0.26142,0.24173 0.1273,0.62906 0.19477,0.92435 0.48358,0.99161 1.00594,1.98946 1.70204,2.86818 0.83039,0.29381 1.76228,0.14767 2.63375,0.15324 3.05456,-0.10261 5.98751,-1.01465 9.01602,-1.27435 0.37516,0.11566 0.81064,-0.0486 0.45125,-0.43204 -0.65419,-1.12949 -1.14091,-2.32774 -1.70391,-3.48871 -0.61035,-0.13174 -1.31532,-0.0151 -1.96295,-0.0481 -0.43109,-0.0379 -0.96282,0.085 -1.33261,-0.051 -3.62551,-5.81166 -5.85692,-12.21957 -8.0864,-18.55978 -0.52388,-1.47744 -0.99696,-2.9714 -1.5645,-4.43506 -0.064,-0.0301 -0.10639,-0.10939 -0.1911,-0.0864 z"
       id="path101" /><path
       style="fill:#000a1a;fill-opacity:1;stroke:#040029;stroke-width:0.0704078;stroke-dasharray:none;stroke-opacity:1"
       d="m 97.193568,108.30771 c -1.103115,0.27716 -2.153321,0.72498 -3.198085,1.14668 -0.220696,0.27228 0.103481,0.6327 0.143867,0.92662 0.153373,0.24602 0.126696,0.75154 0.511326,0.77689 0.243768,-0.0642 0.50232,-0.17339 0.474265,0.17606 0.348341,1.44217 0.753142,2.88101 1.007389,4.33262 -1.372171,-1.74348 -2.641115,-3.56906 -4.021276,-5.29654 -0.438649,-0.0319 -0.911101,0.19789 -1.349289,0.31079 -0.277419,0.25946 -0.01155,0.69377 -0.04921,1.02185 0.184138,1.85295 0.436798,3.75677 0.607124,5.57543 -0.965656,-1.14607 -1.778029,-2.3943 -2.675513,-3.58516 0.418364,-0.18115 0.769524,-0.50322 0.378359,-0.89611 -0.233007,-0.33618 -0.274061,-0.79899 -0.60983,-1.06392 -0.538081,0.0378 -1.041364,0.34443 -1.564921,0.48042 -0.593082,0.2329 -1.246332,0.38332 -1.802588,0.66999 -0.155014,0.28507 0.225782,0.59913 0.28724,0.88887 0.204157,0.28208 0.235686,0.97991 0.766179,0.76059 0.232719,-0.004 0.584707,-0.26038 0.686302,0.0487 1.979389,2.70146 3.744454,5.53193 5.770727,8.20392 0.299291,0.1975 0.676595,-0.11244 0.992799,-0.15853 0.329476,-0.17447 1.068581,-0.15353 0.919085,-0.64876 -0.189041,-1.68355 -0.430898,-3.36178 -0.618884,-5.04449 1.182187,1.36522 2.214336,2.84375 3.449673,4.16615 0.523067,0.005 1.017972,-0.29096 1.520709,-0.42069 0.28205,-0.0715 0.654449,-0.26628 0.486825,-0.58733 -0.652834,-3.26884 -1.302273,-6.55226 -1.944025,-9.81428 0.277383,-0.0601 0.781685,-0.18241 0.564239,-0.53439 -0.209756,-0.46577 -0.301633,-1.01255 -0.611366,-1.41918 -0.03794,-0.0159 -0.08017,-0.0193 -0.121125,-0.0161 z"
       id="path102" /><path
       style="fill:#000a1a;fill-opacity:1;stroke:#040029;stroke-width:0.0704078;stroke-dasharray:none;stroke-opacity:1"
       d="m 103.485,106.53493 c -1.01077,0.34522 -2.07234,0.60489 -3.05383,0.99727 -0.28104,0.47987 -0.744852,0.90004 -0.912531,1.41694 1.150991,2.96059 2.222831,5.95157 3.425531,8.89262 0.44041,0.29445 0.99039,0.49479 1.52333,0.58435 1.5329,-0.36523 3.03652,-0.82644 4.55387,-1.24142 0.32044,-0.3805 0.50868,-0.87394 0.69125,-1.33102 0.0238,-0.59368 -0.35459,-1.14296 -0.48543,-1.71736 -0.8136,-2.37148 -1.6231,-4.74409 -2.45072,-7.11149 -0.48764,-0.37006 -1.05938,-0.7043 -1.61024,-0.98446 -0.56597,0.0882 -1.12202,0.34405 -1.68123,0.49457 z m 1.47804,1.65259 c 0.92994,2.51098 1.80749,5.0432 2.6126,7.58834 -1.00223,0.28277 -2.01562,0.52708 -3.02367,0.79168 -1.01883,-2.47745 -1.83122,-5.02279 -2.76014,-7.52945 1.03257,-0.34946 2.10254,-0.5958 3.15385,-0.89254 z"
       id="path103" /><path
       style="fill:#000a1a;fill-opacity:1;stroke:#040029;stroke-width:0.0704078;stroke-dasharray:none;stroke-opacity:1"
       d="m 111.56298,104.02049 c -1.04851,0.22656 -2.10238,0.43523 -3.1448,0.68382 -0.30947,0.25802 0.0778,0.68401 0.0933,0.99329 0.15765,0.30195 0.0881,0.97072 0.6345,0.83948 0.52577,-0.17951 0.47003,0.37418 0.59938,0.69447 0.71457,2.44296 1.47102,4.90503 2.15792,7.33637 -0.26914,0.0975 -0.88492,0.0599 -0.74429,0.46563 0.16517,0.39304 0.19518,0.93532 0.61511,1.17462 1.07333,-0.11594 2.13451,-0.39974 3.19495,-0.6098 0.42158,-0.13273 0.0589,-0.60987 0.06,-0.88795 -0.0794,-0.37769 -0.12241,-0.96501 -0.71536,-0.76977 -0.57548,0.17352 -0.40962,-0.51761 -0.55849,-0.84166 -0.16718,-0.75603 -0.3403,-1.5174 -0.49072,-2.2724 0.36536,-0.0414 0.7315,-0.10198 1.10076,-0.0962 1.0287,1.35889 1.9475,2.794 3.07464,4.08727 0.30009,0.22295 0.72048,-0.0577 1.06562,-0.039 0.48453,-0.10483 1.03715,-0.0818 1.47109,-0.31895 0.1087,-0.33048 -0.19962,-0.67518 -0.24811,-1.01058 -0.13065,-0.32243 -0.13992,-0.91094 -0.6871,-0.76015 -0.52389,0.11709 -0.67689,-0.46884 -0.99735,-0.73733 -0.52148,-0.60657 -1.043,-1.21315 -1.56449,-1.81971 0.37958,-0.57166 0.9192,-1.08335 1.20231,-1.6912 -0.395,-1.33557 -0.7113,-2.70692 -1.1665,-4.0201 -0.57474,-0.36307 -1.17579,-0.73977 -1.78953,-1.04061 -1.05421,0.16332 -2.10993,0.43552 -3.16282,0.64035 z m 3.14779,1.44464 c 0.33218,0.93403 0.54064,1.90102 0.79687,2.85398 -0.98366,0.23537 -1.96339,0.48754 -2.95485,0.69379 -0.31712,-0.93089 -0.6208,-1.88808 -0.90805,-2.82998 1.01803,-0.24883 2.0427,-0.49538 3.06603,-0.71779 z"
       id="path104" /><path
       style="fill:#000a1a;fill-opacity:1;stroke:#040029;stroke-width:0.0704078;stroke-dasharray:none;stroke-opacity:1"
       d="m 127.83171,100.78875 c -1.07971,0.15231 -2.16106,0.32103 -3.22495,0.54619 -0.26234,0.26496 -6.2e-4,0.67545 -0.004,0.99626 0.0763,0.30631 0.0117,0.96966 0.5599,0.74295 0.34234,-0.15793 0.2513,0.33371 0.3526,0.50893 0.3179,1.41712 0.65766,2.83294 0.89012,4.26411 -1.49241,-1.97736 -2.97702,-3.96408 -4.42787,-5.96908 -0.35018,-0.19185 -0.79488,0.0971 -1.17914,0.10041 -0.64671,0.12507 -1.29728,0.23702 -1.93907,0.38125 -0.28237,0.23549 0.0206,0.62729 0.0178,0.922 0.0978,0.25621 0.0418,0.85116 0.51239,0.73349 0.2476,-0.0161 0.64465,-0.25837 0.61125,0.13093 0.60713,2.66308 1.19931,5.33139 1.75479,8.00439 -0.28962,-0.01 -0.7088,0.12192 -0.57272,0.45892 0.10171,0.43673 0.0333,0.91683 0.20403,1.33537 0.75144,0.0152 1.51469,-0.20212 2.27191,-0.27417 0.41739,-0.11519 0.98898,-0.0286 1.30016,-0.34798 3.1e-4,-0.48357 -0.10834,-0.99314 -0.2698,-1.45752 -0.24116,-0.29064 -0.68895,0.0124 -1.01326,-0.0652 -0.16799,-1.43266 -0.36203,-2.86417 -0.43665,-4.30072 1.37256,1.77976 2.6871,3.60581 4.03675,5.39414 0.60644,0.1161 1.23654,-0.12044 1.84387,-0.17907 0.28961,-0.0479 0.84775,-0.11329 0.68924,-0.50645 -0.67445,-3.19109 -1.4127,-6.36981 -2.09259,-9.55867 0.28576,-0.0233 0.69968,-0.16313 0.5511,-0.5015 -0.0752,-0.42226 -0.12446,-0.85242 -0.2449,-1.2658 -0.0624,-0.0379 -0.10362,-0.1118 -0.19038,-0.0931 z"
       id="path105" /><path
       style="fill:#000a1a;fill-opacity:1;stroke:#040029;stroke-width:0.140816;stroke-dasharray:none;stroke-opacity:1"
       d="m 97.760251,70.942583 c -3.315545,0.10833 -5.995907,2.904758 -6.067074,5.871543 0.03009,0.779845 -0.289024,1.705302 0.124939,2.412693 0.783384,0.335847 2.2585,0.266461 2.269322,-0.781691 0.210473,-1.668901 0.365963,-3.834446 2.321048,-4.607222 2.134055,-0.859952 4.960764,0.158267 5.802774,2.184743 0.5426,1.507685 0.0408,3.215041 -1.02589,4.443749 -0.64383,0.822744 -1.486784,1.512102 -2.138298,2.314366 9.19e-4,1.203577 -0.09673,2.493385 0.409209,3.609051 -1.927974,1.814908 -3.946156,3.592359 -6.221168,5.043067 -1.172316,0.517004 -2.531636,0.18388 -3.775588,0.119777 -0.872994,-0.0988 -2.105583,-0.510661 -2.678629,0.39112 -1.871233,2.146094 -3.194447,4.771233 -5.768173,6.335353 -4.183476,3.007678 -8.557193,5.875718 -12.154425,9.486718 -1.842375,1.98897 -2.447294,4.61537 -2.738597,7.13836 -0.665326,4.03591 -0.869024,8.15597 -2.007021,12.11511 -1.235599,3.39416 -2.83459,6.67015 -3.994007,10.09064 -0.170354,0.82411 -0.84604,1.65264 -0.648374,2.50089 2.064107,2.38717 5.17895,3.76414 8.139363,5.02269 4.786725,1.8755 9.845745,3.3854 15.069578,3.71822 0.814735,0.0125 1.942038,0.18527 2.300164,-0.69834 0.995492,-1.45677 1.450828,-3.39436 2.266451,-4.76783 2.206595,5.4602 4.299256,10.96113 6.642895,16.3758 3.73667,8.73501 7.53945,17.44906 11.52605,26.09104 0.26286,0.6858 0.83421,1.25657 1.66124,1.32932 2.99984,0.73922 6.19882,0.79276 9.25086,0.3078 6.01184,-1.22707 11.02937,-4.97988 17.14138,-5.88976 5.45512,-1.03119 11.05952,-1.89217 16.04163,-4.29372 2.1757,-1.02536 4.36487,-2.07735 6.76083,-2.5751 5.54595,-1.35505 10.97276,-3.57194 15.28253,-7.0942 1.54235,-1.34969 3.0938,-2.7588 4.22976,-4.41686 0.25054,-0.83634 -0.71898,-1.50704 -1.15003,-2.14958 -5.44377,-5.93283 -12.85568,-10.02757 -18.44914,-15.79388 -4.70519,-4.98878 -7.77858,-11.19699 -9.09279,-17.6401 1.58542,0.43149 3.29913,1.14631 4.97146,1.58103 1.38505,0.387 2.78585,0.81521 4.2133,1.00178 3.29573,-1.53529 5.45479,-4.45678 7.38913,-7.23083 2.40286,-3.71755 4.31119,-7.79078 5.01874,-12.0806 0.16213,-1.6365 0.54664,-3.32918 0.23216,-4.95874 -1.43695,-0.896 -3.19397,-1.31536 -4.79139,-1.93743 -5.38553,-1.92602 -11.178,-3.16633 -15.93835,-6.297758 -3.03553,-1.824564 -5.78493,-4.088855 -9.00738,-5.657592 -3.22672,-1.096179 -6.6682,-1.549705 -10.02021,-2.224161 -2.92985,-0.619593 -5.97264,-0.81845 -8.83561,-1.680091 -1.86856,-0.641051 -3.60959,-1.665203 -5.54952,-2.090018 -1.44489,0.55452 -2.52866,1.791408 -4.07053,2.120722 -2.20545,-0.200874 -4.33707,-0.877395 -6.49602,-1.328116 -0.81392,-0.263915 -2.12574,-0.283942 -2.23641,-1.294575 -0.34213,-1.319292 1.09392,-2.23416 1.6533,-3.303971 1.74292,-2.320318 2.40453,-5.646639 0.51285,-8.061887 -1.40816,-1.85312 -3.96449,-2.77058 -6.376339,-2.75153 z m 17.203409,16.991195 c 1.27382,0.408239 2.4584,0.999478 3.68315,1.511689 -4.40336,3.627742 -9.93931,6.019365 -15.69963,7.221776 -3.8503,0.791004 -7.870343,0.822056 -11.789858,0.707145 -1.638682,-0.168454 -3.370008,-0.190476 -4.930465,-0.639709 0.561167,-0.966952 1.208455,-1.944573 1.939426,-2.804007 2.109742,-0.09433 4.251437,0.159058 6.377777,0.07689 5.11762,0.150092 10.29361,-0.803702 14.83766,-2.98948 1.95539,-0.880671 3.7326,-2.069835 5.58194,-3.084298 z m -12.02336,0.883766 c 1.21304,0.133386 2.68299,0.162905 3.68487,0.637368 -2.86302,1.461285 -6.16743,2.138021 -9.412637,2.102085 1.072724,-1.12532 2.434029,-1.980471 3.713617,-2.894534 0.67138,0.05169 1.34278,0.103381 2.01415,0.155081 z m 19.9891,2.035961 c 4.88249,0.642548 9.85245,1.248474 14.50216,2.777504 -1.1888,4.804927 -2.64252,9.742881 -1.72045,14.701481 0.92,6.4192 4.52673,12.12894 7.7879,17.74928 0.85603,2.79594 1.4206,5.70271 2.81302,8.34744 1.68412,3.5827 4.10362,7.02984 6.33438,10.1914 -4.99859,-1.64753 -8.8483,-5.19168 -12.36501,-8.69194 -1.97261,-1.90285 -3.62138,-4.08481 -5.67634,-5.91615 -0.53732,-0.37395 -0.69423,0.41985 -0.33738,0.69377 2.89681,5.1739 6.94533,9.93529 12.35098,13.10036 6.74671,4.23155 14.03554,7.78504 20.1565,12.80616 1.90852,1.55386 3.82915,3.10588 5.57701,4.81241 -3.53884,0.56853 -7.1825,1.21734 -10.20147,3.11179 -4.23905,2.40413 -7.71262,6.0823 -12.66589,7.30182 -3.72146,0.88719 -7.65068,0.67406 -11.44235,0.28705 -1.80109,-0.19582 -3.17767,-1.48083 -4.70843,-2.27472 -5.99468,-3.67889 -12.8398,-5.89746 -19.31851,-8.72322 -5.66112,-2.64328 -9.81289,-7.20685 -13.51942,-11.79721 -0.23315,-0.25642 -0.861694,-1.00087 -1.146435,-0.4283 0.275821,1.05803 1.096055,1.97174 1.625055,2.94648 3.5933,5.68388 9.1693,10.27793 15.7354,12.95054 4.85976,2.10993 10.10821,3.70033 14.55036,6.46171 0.45441,0.29509 0.87061,0.6166 1.30026,0.94688 -2.95352,0.50293 -5.7128,1.66508 -8.16032,3.24036 -5.03201,3.0151 -9.71829,6.87264 -15.72375,8.16408 -0.41351,0.0147 -1.23488,0.51937 -1.35577,-0.12387 -2.53683,-6.41358 -5.66904,-12.62806 -8.323744,-18.98652 -0.104866,-0.39536 0.821673,0.53521 1.070344,0.60986 3.67405,2.60165 7.26691,5.31481 10.81959,8.04755 0.28275,0.37315 1.03049,0.1967 0.68365,-0.28367 -2.51767,-3.91334 -7.07369,-6.15312 -10.27673,-9.52621 -5.617645,-5.67901 -8.605032,-12.96974 -11.376586,-20.06541 -2.475626,-6.86419 -4.081069,-14.06823 -7.882649,-20.48062 -2.743527,-4.94465 -6.757217,-9.24106 -11.486557,-12.69545 -0.430967,-0.30623 0.406768,-0.59189 0.516111,-0.86798 4.157444,-3.89712 8.796429,-7.34908 13.68863,-10.439597 0.73139,-0.130842 1.614547,0.296771 2.409415,0.341346 4.254877,0.800773 8.647544,0.791591 12.959726,0.462897 7.33653,-0.963425 14.286,-3.96541 19.85348,-8.419942 0.58044,-0.824008 1.51431,-0.526164 2.39336,-0.402324 0.18682,0.02366 0.37364,0.04731 0.56046,0.07096 z m 16.98873,3.378661 c 5.0998,3.704694 10.45912,7.269704 16.61552,9.367384 1.63998,0.60699 3.39255,0.99289 4.95269,1.73423 -3.19739,3.22636 -6.90876,6.47437 -7.98189,10.88593 -0.77648,3.12662 -0.84223,6.48844 -2.54605,9.36036 -0.32928,0.60761 -0.98757,-0.15104 -1.46668,-0.15692 -1.35924,-0.51529 -2.89146,-0.81525 -4.15105,-1.42939 -3.34415,-5.1143 -6.6347,-10.56352 -7.2266,-16.59017 -0.38998,-4.4585 -0.0377,-9.026926 1.65979,-13.26195 l 0.12127,0.0761 z m 23.78809,11.666324 c 0.52235,0.0744 1.64753,0.0739 1.36586,0.84832 -1.30367,1.81889 -3.17668,3.24968 -4.56129,5.02498 -1.89198,2.14115 -3.06779,4.73608 -3.55095,7.44222 -0.64516,2.6382 -1.09892,5.36764 -2.36684,7.83233 -0.82993,-0.27617 -1.64826,-0.5835 -2.45322,-0.91551 1.21101,-2.76595 2.22106,-5.65341 2.48944,-8.6348 0.24302,-2.8903 1.95903,-5.43379 4.00478,-7.55802 1.28462,-1.42904 2.60694,-2.83086 4.00638,-4.1676 0.35527,0.0427 0.71056,0.0854 1.06584,0.12808 z m 2.38598,3.73052 c -0.67776,4.55976 -2.73851,8.93481 -5.57818,12.71899 -0.6179,0.78689 -1.36427,1.6295 -2.10134,2.24178 0.3793,-2.40709 0.76192,-4.82779 1.57302,-7.14674 1.39369,-2.98654 3.76164,-5.46636 6.10966,-7.84578 z m -96.916149,2.80743 c 2.059929,0.52005 3.304577,2.26303 4.708764,3.60066 5.821659,6.50857 9.313223,14.49338 11.748059,22.52755 0.299351,1.05161 -0.323901,2.0994 -0.888824,2.97722 -2.461087,-0.89551 -4.499646,-2.55436 -6.652785,-3.95464 -2.040723,-1.48987 -4.404443,-2.64186 -7.006787,-3.01951 -2.239018,-0.40363 -4.561941,-0.38916 -6.805416,-0.57538 0.967414,-3.22069 2.2937,-6.35437 3.061278,-9.62984 1.063711,-3.90609 1.376161,-7.96255 1.835711,-11.92606 z m -4.928022,22.79916 c 3.650594,0.19266 7.510634,0.39048 10.811821,2.0118 3.125658,1.70211 5.853834,3.96711 9.092228,5.50676 0.46564,0.30032 -0.192801,0.83498 -0.254891,1.20047 -0.245907,0.28603 -0.395609,1.20502 -0.944852,0.83836 -4.365186,-2.29829 -8.264196,-5.58419 -13.258452,-6.71692 -2.227643,-0.31635 -4.500472,-0.11597 -6.745894,-0.1926 0.127057,-0.88548 0.223241,-1.83932 0.708642,-2.61325 0.194402,-0.0345 0.394323,-0.0315 0.591398,-0.0346 z m 1.260957,4.92603 c 2.487112,-0.0683 4.926066,0.30689 7.126328,1.41805 1.920999,0.96602 3.833207,2.03581 5.468019,3.38543 0.330054,0.35296 -0.190787,0.71194 -0.516681,0.3443 -3.943556,-1.4626 -8.318878,-1.90913 -12.022663,-3.89615 -0.516197,-0.34211 -1.218538,-0.77298 -1.496138,-1.20516 0.467584,-0.0479 0.960095,-0.0448 1.441135,-0.0465 z m 105.501764,24.0991 c -3.05298,2.95409 -6.74747,5.45446 -11.04714,6.6401 -1.34232,0.39399 -2.72202,0.66634 -4.09557,0.95111 4.2055,-3.66367 9.31523,-6.76789 15.166,-7.62061 z m -30.25926,10.28005 c 2.45872,0.01 4.915,-0.0128 7.35941,0.26319 -4.17832,1.81539 -8.73861,2.61808 -13.25644,3.34445 -4.7846,0.81492 -9.10386,2.92876 -13.42259,4.87227 -2.19873,1.00929 -4.66024,1.40946 -7.06681,1.65054 2.4161,-1.03659 4.68749,-2.34091 6.65585,-3.99668 2.6754,-2.10358 5.3613,-4.48112 8.92711,-5.18628 3.34104,-0.81674 6.7954,-1.02165 10.24543,-0.94716 0.18601,-1.1e-4 0.37204,-2.3e-4 0.55804,-2.8e-4 z"
       id="path113" /><path
       style="fill:#000a1a;fill-opacity:1;stroke:#040029;stroke-width:0.140816;stroke-dasharray:none;stroke-opacity:1"
       d="m 139.30259,152.73192 c -0.59779,0.21003 0.13384,0.80984 0.38221,1.02518 1.9987,1.68927 4.29338,3.1887 6.99407,3.74593 3.62729,0.91715 7.33942,1.53454 10.70272,3.10113 0.36782,0.29776 0.98883,-0.0456 0.63768,-0.44842 -1.26071,-1.593 -3.18135,-2.70936 -5.27247,-3.16246 -4.50935,-1.25219 -9.14155,-2.27763 -13.34362,-4.26111 -0.0332,-0.005 -0.0674,-0.004 -0.10052,-2.5e-4 z"
       id="path114" /><path
       style="fill:#000a1a;fill-opacity:1;stroke:#040029;stroke-width:0.140816;stroke-dasharray:none;stroke-opacity:1"
       d="m 102.71098,106.64501 c -0.99654,0.44538 -2.46386,0.36833 -2.881412,1.48231 -0.813705,0.65711 -0.197089,1.47036 0.06697,2.21907 0.994062,2.48911 1.869112,5.03579 2.918192,7.49498 0.6985,0.63649 1.77867,0.87967 2.68467,0.45902 1.25644,-0.38864 2.62796,-0.62344 3.77587,-1.22708 0.36496,-0.69849 0.86281,-1.45643 0.35103,-2.20838 -0.98075,-2.59937 -1.64334,-5.31267 -2.85225,-7.83368 -0.38072,-0.57882 -1.17406,-1.04964 -1.87088,-1.07118 -0.73073,0.22832 -1.46145,0.45662 -2.19218,0.68494 z m 2.16616,1.8158 c 0.93136,2.35221 1.744,4.79471 2.48082,7.18294 -0.87414,0.33729 -1.8134,0.55812 -2.74721,0.72554 -0.87787,-2.40822 -1.84601,-4.88474 -2.58773,-7.27426 0.92452,-0.28449 1.8701,-0.52176 2.82939,-0.68512 z"
       id="path118" /></g></svg>
